<?xml version="1.0" encoding="UTF-8" standalone="no"?>
<!-- Created with Inkscape (http://www.inkscape.org/) -->
<svg
   xmlns:dc="http://purl.org/dc/elements/1.1/"
   xmlns:cc="http://web.resource.org/cc/"
   xmlns:rdf="http://www.w3.org/1999/02/22-rdf-syntax-ns#"
   xmlns:svg="http://www.w3.org/2000/svg"
   xmlns="http://www.w3.org/2000/svg"
   xmlns:sodipodi="http://inkscape.sourceforge.net/DTD/sodipodi-0.dtd"
   xmlns:inkscape="http://www.inkscape.org/namespaces/inkscape"
   width="744.09448819"
   height="1052.3622047"
   id="svg2"
   sodipodi:version="0.32"
   inkscape:version="0.43"
   sodipodi:docbase="/home/ohad"
   sodipodi:docname="tech_split.svg">
  <defs
     id="defs4" />
  <sodipodi:namedview
     id="base"
     pagecolor="#ffffff"
     bordercolor="#666666"
     borderopacity="1.0"
     inkscape:pageopacity="0.0"
     inkscape:pageshadow="2"
     inkscape:zoom="1.0075"
     inkscape:cx="120"
     inkscape:cy="357.69388"
     inkscape:document-units="px"
     inkscape:current-layer="layer1"
     inkscape:window-width="762"
     inkscape:window-height="576"
     inkscape:window-x="171"
     inkscape:window-y="103" />
  <metadata
     id="metadata7">
    <rdf:RDF>
      <cc:Work
         rdf:about="">
        <dc:format>image/svg+xml</dc:format>
        <dc:type
           rdf:resource="http://purl.org/dc/dcmitype/StillImage" />
      </cc:Work>
    </rdf:RDF>
  </metadata>
  <g
     inkscape:label="Layer 1"
     inkscape:groupmode="layer"
     id="layer1">
    <path
       style="fill:#000000"
       d="M 429.04151,131.61556 C 403.77407,122.74949 373.12322,113.79974 363.57459,124.91265 L 332.57224,140.57454 L 290.40191,140.57454 C 235.88065,140.57454 233.78074,138.58209 247.39959,99.772773 C 257.99924,69.567203 278.71053,47.807843 305.14871,39.101323 C 332.3693,30.137163 359.26699,30.223783 416.40957,39.459633 C 470.83237,48.255883 525.54303,47.023343 576.70843,35.848363 C 621.17163,26.137183 624.30873,26.294913 624.21253,38.236913 C 624.15523,45.344083 620.72503,50.548113 611.08653,58.151033 C 603.90983,63.811983 598.03813,71.169713 598.03813,74.501533 C 598.03813,81.984383 583.38673,101.02281 575.60043,103.65769 C 572.44233,104.7264 568.44623,110.71463 566.72043,116.96491 C 561.92383,134.33581 539.87143,144.5942 503.54514,146.35285 C 476.69216,147.65288 472.23233,146.77071 429.04151,131.61556 z M 532.40843,126.62228 C 550.78543,120.91573 553.08663,118.01263 555.13493,97.950963 C 555.26903,96.637413 558.16743,94.619003 561.57593,93.465593 C 572.35993,89.816323 584.91223,74.844323 584.91223,65.630823 C 584.91223,59.691313 587.84703,55.043993 593.93633,51.341033 C 599.60293,47.895133 600.51853,46.535493 596.39733,47.686713 C 592.78773,48.695033 575.06773,51.892113 557.01953,54.791343 C 511.08553,62.170113 458.14002,61.459643 404.99859,52.751413 C 351.93484,44.055893 327.09166,45.199593 301.8966,57.497883 C 283.10207,66.671923 270.37676,81.120583 261.7872,103.03924 C 252.65453,126.34377 252.93982,126.57966 290.26032,126.57966 L 323.75722,126.57966 L 336.36754,113.45944 C 348.28916,101.05577 350.08885,100.35483 369.32076,100.6247 C 383.70398,100.82654 401.68055,105.10437 430.68229,115.2267 C 453.24247,123.1008 474.65416,130.35995 478.26382,131.35816 C 487.02446,133.78082 518.11193,131.06168 532.40843,126.62228 z "
       id="path1368"
       sodipodi:nodetypes="ccccssssssssssccssssssssscccsssc" />
    <path
       style="fill:#000000"
       d="M 760.68701,1050.8628 C 659.34629,1022.5411 579.9461,939.77075 547.53646,828.66501 C 541.76435,808.87718 541.41298,790.80949 541.41298,513.77998 L 541.41298,219.88728 L 834.28569,218.9938 L 1127.1584,218.10031 L 1127.1584,511.20745 C 1127.1584,794.75553 1126.9418,805.14828 1120.5146,829.87718 C 1092.4612,937.81295 1010.5807,1023.1176 908.24548,1051.0231 C 873.62035,1060.465 794.7389,1060.3793 760.68701,1050.8628 z M 899.09506,1037.2247 C 977.85888,1014.9979 1038.6638,967.31835 1078.0613,896.8901 C 1101.0771,855.74607 1117.314,797.1082 1117.314,755.13285 C 1117.314,742.95915 1118.557,736.35496 1120.5955,737.69822 C 1122.6903,739.07861 1123.877,728.47345 1123.877,708.37204 C 1123.877,691.05336 1122.4003,675.91051 1120.5955,674.72122 C 1115.8915,671.62156 1116.2759,602.9974 1120.9973,602.9974 C 1123.5866,602.9974 1123.4995,601.48004 1120.7036,597.88836 C 1117.9008,594.28748 1117.5667,588.34893 1119.5718,577.7707 C 1121.1366,569.51596 1121.3981,554.88997 1120.1529,545.26848 C 1117.0228,521.08235 1116.8011,482.25492 1119.7751,479.08533 C 1123.3467,475.27873 1123.907,402.57645 1120.3995,398.07032 C 1118.7705,395.9776 1117.0407,357.39193 1116.5554,312.32441 L 1115.6732,230.38345 L 833.4654,230.38345 L 551.25744,230.38345 L 552.15276,505.03317 C 552.72813,681.52944 554.29798,786.35416 556.54549,798.35014 C 580.60276,926.75535 675.50687,1023.0848 798.34827,1043.7844 C 824.03265,1048.1124 871.45448,1045.0247 899.09506,1037.2247 z M 790.90705,1026.1892 C 750.95198,1019.4883 704.20974,998.78765 672.84846,973.90475 C 648.71268,954.75475 615.07866,915.91034 600.89456,890.8041 C 585.80753,864.09972 570.67558,820.82766 566.08047,791.24812 C 562.15125,765.9551 561.3724,249.56247 565.25772,245.74963 C 566.58166,244.45037 686.59592,242.26355 831.95611,240.89 C 1065.2458,238.68561 1096.7284,239.01066 1100.3483,243.66113 C 1103.5719,247.80242 1104.23,308.32642 1103.4246,526.55177 C 1102.471,784.92352 1101.982,805.50826 1096.3724,823.41692 C 1065.474,922.0598 994.25764,995.12065 905.25824,1019.4809 C 875.2954,1027.6821 819.37056,1030.9629 790.90705,1026.1892 z M 864.7256,1012.1348 C 921.9276,1004.4988 968.94079,980.67835 1011.1199,937.95995 C 1053.8283,894.70543 1080.3409,842.30216 1087.6573,786.68034 C 1090.1795,767.50636 1091.0371,679.34841 1090.3802,506.78254 L 1089.4213,254.87451 L 986.05451,255.21724 C 929.20277,255.40572 813.65339,255.79934 729.27813,256.09192 L 575.8686,256.62388 L 575.98308,509.40658 C 576.07168,705.04587 577.0932,768.13868 580.50197,788.5074 C 597.34657,889.1606 666.38975,971.98695 758.10679,1001.5675 C 799.19961,1014.8209 825.2567,1017.4035 864.7256,1012.1348 z "
       id="path1373"
       sodipodi:nodetypes="cscccccssccssssssssssscccccssccsssssscssccssccccccssc" />
    <path
       style="fill:#000000"
       d="M 235.19908,526.58392 C 246.81235,541.29911 284.62355,513.59562 290.0304,531.80144 C 294.47891,546.78036 268.58477,581.32357 272.32905,585.3157 C 276.00373,589.23366 279.46989,589.29152 292.24629,585.64816 C 311.13765,580.26097 316.71551,583.24093 322.797,601.96981 C 328.64458,619.97822 325.98427,626.97661 311.38589,631.98843 C 295.20445,637.54373 291.3888,641.18877 293.35651,649.21145 C 294.56045,654.12016 299.09311,656.55152 310.24551,658.27094 C 330.43199,661.38319 333.69267,664.77464 333.69267,682.6586 C 333.69267,702.23099 327.48583,708.72052 308.76589,708.72052 C 295.88202,708.72052 293.7507,709.84697 290.75857,718.23803 C 287.07696,728.5624 287.67898,729.39324 307.1951,740.92098 C 319.17961,747.99998 320.22209,757.77215 310.7582,774.32158 C 303.56123,786.90696 294.77658,788.72594 281.18887,780.44433 C 270.06712,773.66562 267.07548,773.97501 262.13175,782.41519 C 258.40456,788.7786 259.08877,791.07353 267.90544,801.77989 C 280.19306,816.70128 280.40694,822.7632 269.08976,835.35776 C 256.9026,848.92059 245.86714,848.17043 233.60733,832.94581 C 223.91043,820.90384 223.64959,820.81441 216.20447,826.97874 C 209.66789,832.39077 209.11332,834.54752 212.10261,842.93029 C 214.00374,848.26164 215.55921,857.74006 215.55921,863.99346 C 215.55921,873.56346 213.72348,876.29646 203.96264,881.25926 C 197.58449,884.50206 190.43009,887.15536 188.06379,887.15536 C 182.17081,887.15536 174.39681,877.03566 170.59347,864.41366 C 168.0421,855.94655 165.59518,853.91751 157.93568,853.91751 C 149.10388,853.91751 148.24981,855.13183 145.70654,871.30566 C 144.20281,880.86916 141.40359,890.70936 139.48616,893.17266 C 134.4535,899.63816 108.85385,898.84036 102.45579,892.01876 C 98.788533,888.10866 97.462373,881.49186 98.119553,870.38336 C 98.979083,855.85577 98.310203,854.17788 90.862643,852.18059 C 83.688993,850.25679 81.628843,851.98498 74.455213,865.94386 C 64.741413,884.84566 53.104043,888.11856 35.897733,876.78766 C 23.508653,868.62916 22.866423,863.83256 31.693183,845.38533 L 38.153433,831.88388 L 30.872803,826.70101 C 24.090553,821.87294 22.749143,822.32771 11.277123,833.34443 C -3.6437771,847.67316 -7.8375271,847.96107 -20.836557,835.54921 C -34.963547,822.06033 -35.139977,814.23635 -21.656307,799.19836 C -10.457047,786.70812 -10.344587,786.29055 -15.791927,777.42647 C -21.176997,768.66375 -21.697367,768.54569 -32.912807,773.54201 C -51.051297,781.62249 -59.179847,780.21533 -65.120667,767.96649 C -73.337347,751.02532 -70.357467,739.61721 -55.587627,731.47068 C -42.895447,724.4701 -42.024527,722.83868 -44.843667,711.34456 C -45.991417,706.66502 -49.803807,705.2218 -61.017507,705.2218 C -79.517197,705.2218 -83.716997,699.95584 -82.426017,678.37851 L -81.415437,661.48776 L -65.071447,660.38843 C -47.863927,659.23101 -43.810837,655.96436 -43.728577,643.18695 C -43.690687,637.30061 -47.509477,633.4308 -59.265397,627.44271 C -73.413957,620.23583 -74.807067,618.44634 -74.360487,608.05248 C -73.273727,582.75922 -57.979247,573.01249 -37.282477,584.42371 C -27.751807,589.67849 -25.946687,588.90708 -19.485637,576.8183 M -4.3127471,574.1184 C -4.3194871,577.91273 -7.2511171,586.13404 -10.827497,592.388 C -18.198687,605.27798 -28.079367,607.11128 -43.715537,598.49026 C -52.584207,593.60047 -53.516277,593.70971 -56.678517,600.00961 C -61.558177,609.73087 -61.554837,609.73599 -45.319077,617.3933 C -30.979407,624.15632 -30.552377,624.81209 -30.552377,640.07093 C -30.552377,648.71319 -31.992497,659.82273 -33.752647,664.75872 C -36.609877,672.77135 -38.744727,673.73329 -53.669807,673.73329 C -69.128877,673.73329 -70.307797,674.32562 -69.338097,681.60541 C -68.449557,688.27584 -65.796577,689.74461 -51.958827,691.2269 C -33.138927,693.2429 -26.601237,701.85571 -28.057017,722.71541 C -28.916617,735.03242 -28.985227,735.0977 -56.249767,749.53084 C -56.847207,749.84713 -55.730197,753.30501 -53.767547,757.21505 C -50.428887,763.86633 -49.467477,763.99831 -38.840377,759.26404 C -21.837677,751.68959 -15.333637,753.00917 -6.1082171,765.90499 C 5.0029129,781.43685 4.4488829,791.70098 -8.2549471,805.67569 C -18.018787,816.4163 -18.385337,817.65796 -13.370597,823.00468 C -8.3558671,828.35143 -7.1238071,827.97308 3.8240129,817.7244 C 18.148653,804.31458 28.067173,803.7913 41.388563,815.74256 C 52.775583,825.95841 53.863113,833.61711 46.177073,849.46422 C 41.215653,859.69366 41.251613,860.70576 46.728213,864.97546 C 53.097623,869.94116 61.329253,865.70406 61.329253,857.45966 C 61.329253,855.06833 64.521873,848.78439 68.423933,843.49531 C 74.843113,834.7944 76.920523,834.0837 90.242953,836.03059 C 110.77177,839.03068 113.83311,842.80115 113.83311,865.08546 C 113.83311,882.84796 114.33487,884.06736 121.21644,883.02526 C 127.20176,882.11896 129.22111,878.59506 131.88123,864.41366 C 136.28923,840.91489 137.89604,838.95196 154.95791,836.224 C 172.63265,833.39805 177.91658,837.10698 183.24863,856.08192 C 187.06437,869.66086 190.51423,872.06786 198.45848,866.69386 C 201.64594,864.53766 201.84801,861.47876 199.27887,854.27412 C 192.8566,836.26402 195.01594,825.22923 206.84485,815.60961 C 221.49583,803.69491 228.55779,804.35111 241.73989,818.85202 C 250.21655,828.17663 253.81694,830.12007 257.15035,827.17043 C 263.55279,821.50505 262.4988,815.90238 253.29624,806.68475 C 243.15078,796.52259 242.71501,782.86128 252.1293,770.10067 C 258.12225,761.97741 260.92088,760.84253 270.99782,762.44922 C 297.80317,766.72307 299.23709,766.62752 299.23709,760.56745 C 299.23709,757.33237 294.06874,750.98401 287.75191,746.46002 C 278.80228,740.05052 276.07803,735.5559 275.41206,726.10158 C 274.94202,719.42843 276.45328,710.03254 278.77035,705.2218 C 282.2869,697.92084 285.95395,696.18581 300.9546,694.72564 C 317.47919,693.11709 318.92601,692.27473 318.92601,684.26235 C 318.92601,676.4834 317.12522,675.24282 302.14313,672.70015 C 288.81009,670.43735 284.59431,668.05945 281.63391,661.13181 C 272.40325,639.5317 279.26783,625.24069 301.69817,619.36073 C 311.45989,616.8018 312.5254,613.88842 307.41963,603.71676 C 304.37127,597.64371 303.2428,597.52677 292.7584,602.19743 C 276.48275,609.44801 269.4608,608.50668 261.73815,598.03892 C 251.264,583.84173 252.85892,570.81771 266.42221,559.78759 C 279.42313,549.21487 280.05883,547.07421 272.56939,539.08898 C 267.63972,533.83292 266.65406,533.9758 259.68434,540.95703 C 255.53348,545.11469 246.83044,561.68744 240.34424,577.78538 L 228.55115,607.0543 L 235.51569,629.02295 C 244.91349,658.66713 243.39873,706.45752 232.34092,729.18598 C 217.51745,759.6545 183.37057,782.00759 158.95434,796.39329 C 139.55498,807.82312 100.5941,799.30895 86.400463,794.35914 C 54.224613,783.13824 30.660403,760.38262 15.833973,726.21412 C 8.8461029,710.11017 7.4830229,701.83458 7.4778729,675.48265 C 7.4736329,653.7433 9.1590929,639.91754 12.921683,630.82724 C 18.331023,617.75846 18.287153,617.47234 7.0355829,592.43999 C 0.80075286,578.56881 -4.3059971,570.32411 -4.3127471,574.1184"
       id="path1375"
       sodipodi:nodetypes="csssssssssssssssssssssssssscsssscccssssssssscccssssscssssssssssssssssssssssssscssssssssssssssssssssssssscccssssssss" />
  </g>
</svg>
